<?xml version="1.0" encoding="UTF-8"?><svg id="Ebene_2" xmlns="http://www.w3.org/2000/svg" viewBox="0 0 226.62 226.62"><g id="Ebene_1-2"><path d="M27,85.6H0v-48.05C0,16.85,16.85,0,37.55,0h48.05v27h-48.05c-5.82,0-10.55,4.73-10.55,10.55v48.05Z"/><path d="M85.6,226.62h-48.05c-20.71,0-37.55-16.85-37.55-37.55v-48.05h27v48.05c0,5.82,4.73,10.55,10.55,10.55h48.05v27Z"/><path d="M189.06,226.62h-48.05v-27h48.05c5.82,0,10.55-4.73,10.55-10.55v-48.05h27v48.05c0,20.71-16.85,37.55-37.55,37.55Z"/><path d="M226.62,85.6h-27v-48.05c0-5.82-4.73-10.55-10.55-10.55h-48.05V0h48.05c20.71,0,37.55,16.85,37.55,37.55v48.05Z"/></g></svg>