<?xml version="1.0" encoding="UTF-8"?><svg id="Ebene_2" xmlns="http://www.w3.org/2000/svg" viewBox="0 0 155.4 48.08"><defs><style>.cls-1{fill:#acdef9;}.cls-2{fill:#008e3d;}.cls-3{fill:#fff;}.cls-4{fill:#86bc25;}.cls-5{fill:#008a3b;}.cls-6{fill:#e63320;}.cls-7{fill:#00365f;}.cls-8{fill:#ffd125;}.cls-9{fill:#0098d6;}.cls-10{fill:#e4a224;}</style></defs><g id="Layer_1"><path class="cls-7" d="M0,25.87c0,7.88,9.73,16.56,15.55,16.86h-.02c5.82-.3,15.55-8.99,15.55-16.86.04-10.69,0-25.42,0-25.42H0v25.42Z"/><path class="cls-7" d="M60.86.45v.56c-1.99.03-2.71.84-2.71,2.73v8.02c0,3.68-2.35,7.64-8.8,7.64-5.67,0-8.59-3.24-8.59-7.49V3.24c0-1.9-.53-2.2-2.56-2.23V.45h7.64v.56h-.27c-1.63,0-2.35.45-2.35,2.17v8.26c0,4.01,2.35,6.42,6.77,6.42,3.36,0,6.78-1.4,6.78-6.44v-6.93c0-2.85-.45-3.36-2.91-3.48V.45h6.98Z"/><path class="cls-7" d="M64.22,16.34c0,1.63.39,2.02,1.99,2.02v.56h-5.97v-.56c1.31,0,1.99-.72,1.99-1.87v-6.24c0-1.1-.12-1.31-.89-1.46l-1.01-.21v-.48l3.42-1.25h.48v2.32c1.99-1.25,3.65-2.35,5.11-2.35,2.02,0,3.18,1.48,3.18,4.45,0,3.95-.21,4.72-.24,5.89-.03.8.44,1.19,1.66,1.19h.65v.56h-6.39v-.56c.86-.03,1.36-.24,1.69-.57.56-.57.62-2.74.62-6.69,0-2.38-1.16-3.12-2.35-3.12-.95,0-2.4.83-3.95,1.9v6.45Z"/><path class="cls-7" d="M79.9,16.67c0,1.04.56,1.7,2.14,1.7v.56h-6.6v-.56c1.81,0,2.47-.6,2.47-2.17v-5.97c0-1.16-.15-1.31-.92-1.46l-1.4-.27v-.47l3.86-1.34h.45v9.98ZM78.68,0c.71,0,1.31.5,1.31,1.13s-.59,1.13-1.31,1.13-1.28-.51-1.28-1.13.56-1.13,1.28-1.13Z"/><path class="cls-7" d="M88.09,19.2l-4.31-9.86c-.45-1.04-.83-1.4-1.31-1.49l-.92-.15v-.54h6.06v.54c-1.81.06-2.38.29-1.67,1.69l3.15,7.4,3.03-6.86c.54-1.22.27-2.08-1.9-2.23v-.54h5.17v.54c-1.13.21-1.79.86-2.35,2.17l-4.1,9.33h-.86Z"/><path class="cls-7" d="M97.2,11.38c-.06.45-.11.86-.11,1.25,0,3.09,2.17,5.17,4.51,5.17,1.49,0,2.65-.59,3.78-1.93l.33.36c-1.25,1.58-3.12,3.06-5.29,3.06-2.91,0-5.17-2.64-5.17-6.09,0-3.15,2.11-6.36,5.73-6.36,4.01,0,3.92,2.88,4.9,3.86v.68h-8.68ZM103.38,10.61c-.33-1.93-1.51-3.21-2.94-3.21-.98,0-2.46.45-3.15,3.21h6.09Z"/><path class="cls-7" d="M111.28,16.76c0,1.22.45,1.61,1.93,1.61h1.13v.56h-7.04v-.56c1.52-.03,1.99-.65,1.99-2.23v-6.86l-1.99-.72v-.5l3.39-1.19h.6v3.15h.06c1.48-2.44,1.84-3,2.82-3,.36,0,.45.03,1.01.27.3.12.83.24,1.54.44l-.71,1.79c-.45-.06-1.01-.21-1.58-.48-.32-.15-.68-.29-1.04-.29-.53,0-.86.36-1.16.77-.39.53-.71,1.04-.95,1.48v5.76Z"/><path class="cls-7" d="M118.39,15.93c.35,1.79,1.48,2.79,2.82,2.79,1.19,0,2.11-.89,2.11-1.96,0-.62-.15-1.01-.95-1.81-2.11-2.11-4.46-2.32-4.46-4.78,0-1.96,1.55-3.33,3.8-3.33.8,0,1.63.18,2.38.48l.06,2.7h-.51c-.21-1.52-1.19-2.46-2.38-2.46-.98,0-1.81.68-1.81,1.66,0,2.62,5.52,3.06,5.52,6.69,0,1.93-1.61,3.39-3.68,3.39-.56,0-.98-.09-1.31-.21-.33-.09-.57-.18-.8-.18-.18,0-.36.12-.51.35h-.45l-.33-3.33h.48Z"/><path class="cls-7" d="M130.88,16.67c0,1.04.56,1.7,2.14,1.7v.56h-6.6v-.56c1.81,0,2.47-.6,2.47-2.17v-5.97c0-1.16-.15-1.31-.92-1.46l-1.4-.27v-.47l3.86-1.34h.45v9.98ZM129.66,0c.71,0,1.31.5,1.31,1.13s-.59,1.13-1.31,1.13-1.28-.51-1.28-1.13.56-1.13,1.28-1.13Z"/><path class="cls-7" d="M140.8,7.16l-.48,1.31h-3.2v6.92c0,1.87,1.34,2.5,1.96,2.5.65,0,1.25-.51,1.81-1.49l.48.45c-.71,1.55-1.87,2.44-3.24,2.44-1.75,0-3-1.46-3-3.45v-7.37h-1.37v-.48c1.16-.56,2.17-1.93,2.85-3.77h.51v2.94h3.67Z"/><path class="cls-7" d="M151.89,10.46c.89-2.26.33-2.7-1.43-2.76v-.54h4.93v.54c-1.22.15-1.9.98-2.46,2.38l-5.05,12.6c-.89,2.2-1.57,3.18-2.61,3.18-.71,0-1.22-.45-1.22-1.04,0-1.22,1.72-.92,2.46-1.66.33-.33.77-1.1,1.01-1.69l.89-2.23-4.6-9.77c-.57-1.22-1.1-1.73-2.35-1.75v-.54h5.97v.54c-1.81.03-2.02.56-1.43,1.81l3.36,7.25,2.52-6.3Z"/><path class="cls-7" d="M46.18,28.97c.86,0,2.7,1.19,2.7,4.37,0,5.64-5.62,8.11-7.01,8.11s-2.64-2.23-2.64-4.7c0-4.81,5.17-7.79,6.95-7.79ZM44.67,30.07c-1.87,0-3.54,3.59-3.54,6.57,0,2.49,1.07,3.71,2.08,3.71,2.38,0,3.77-3.86,3.77-6.6,0-2.08-1.01-3.68-2.32-3.68Z"/><path class="cls-7" d="M49.94,30.31l.09-.56c.71-.09,1.43-.21,2.17-.39.45-2.44,1.34-4.99,3-6.65,1.04-1.04,2.35-1.6,3.51-1.6s2.11.65,2.11,1.43c0,.47-.36.86-.83.86-.98,0-1.78-1.22-2.64-1.22-1.16,0-2.11,1.31-2.53,3.27l-.8,3.89h2.55l-.3.98h-2.44l-1.51,8.68c-1.16,6.66-4.55,9.03-7.34,9.03-1.25,0-2.29-.62-2.29-1.37,0-.48.48-.89.98-.89,1.1,0,1.69,1.31,2.82,1.31.68,0,1.28-.33,1.81-.86,1.48-1.49,2.05-6.56,2.17-7.28l1.52-8.62h-2.05Z"/><path class="cls-7" d="M78.32,39.7c-2.94,1.52-6.71,1.87-7.96,1.87-6.51,0-9.54-5.02-9.54-9.36s3.12-10.04,10.37-10.04c3.18,0,5.29,1.01,5.91,1.01.27,0,.51-.06.68-.21h.42v4.81h-.59c-.81-3.71-3.33-4.87-6.09-4.87-5.23,0-7.9,4.34-7.9,9.12,0,6.09,4.28,8.79,7.7,8.79,1.37,0,2.88-.3,4.55-1.13v-3.74c0-1.69-.59-2.26-2.38-2.26h-1.1v-.53h8.02v.53c-1.48.09-2.08.6-2.08,1.87v4.13Z"/><path class="cls-7" d="M84.87,38.75c0,1.22.57,1.78,1.72,1.78h.51v.57h-6.68v-.57c1.9,0,2.46-.56,2.46-1.99v-14.35c0-.84-.09-1.1-.92-1.19l-1.34-.15v-.5l3.8-1.22h.44v17.62Z"/><path class="cls-7" d="M88.56,32.87c-.06-.18-.09-.27-.09-.42,0-1.04,2.47-3.45,4.4-3.45.89,0,2.29.42,3.12,1.58.45.62.45,1.01.45,2.55v3.98c0,2.38,0,2.91.77,2.91.32,0,.71-.03,1.45-.65l.15.45c-1.6,1.31-2.44,1.63-2.94,1.63-1.22,0-1.34-1.34-1.37-1.81-2.05,1.69-2.64,1.81-3.45,1.81-1.72,0-2.76-.98-2.76-2.44,0-1.81,1.6-2.44,3.51-2.91.62-.15,1.6-.51,2.64-1.13v-2.35c0-.83,0-1.31-.51-1.9-.38-.48-1.01-.86-1.66-.86-.98,0-1.84.83-1.84,1.45,0,.18.03.3.15.57l-2.02.98ZM94.44,35.57c-.56.33-1.04.54-1.75.83-1.81.74-2.5,1.04-2.5,2.26,0,1.07.86,1.75,1.75,1.75.47,0,.83-.15,2.5-1.31v-3.54Z"/><path class="cls-7" d="M100.27,38.09c.36,1.78,1.49,2.8,2.83,2.8,1.19,0,2.11-.9,2.11-1.96,0-.63-.15-1.01-.95-1.82-2.11-2.11-4.46-2.32-4.46-4.78,0-1.96,1.54-3.33,3.8-3.33.8,0,1.63.18,2.38.48l.06,2.7h-.5c-.21-1.52-1.19-2.47-2.38-2.47-.98,0-1.81.68-1.81,1.66,0,2.61,5.53,3.06,5.53,6.69,0,1.93-1.6,3.39-3.68,3.39-.56,0-.98-.09-1.31-.21-.32-.09-.56-.18-.8-.18-.18,0-.35.12-.5.36h-.45l-.32-3.33h.47Z"/><path class="cls-7" d="M121.13,31.77c-.45-.03-1.84-.15-2.97-.36.18.33.5.95.5,1.9,0,2.2-1.9,4.31-5.2,4.31-.56,0-.83-.06-1.37-.24-.47.51-1.81.83-1.81,1.51,0,.75,1.28,1.04,4.25,1.07,3.36.03,4.52.18,5.41,1.07.71.71.89,1.45.89,2.08,0,1.93-2.61,4.9-8.11,4.9-3.09,0-4.57-1.37-4.57-2.82,0-1.72,1.81-1.99,3.18-3.65-1.6-.15-2.82-1.16-2.82-2.11,0-1.37,1.99-1.43,3.03-2.2-1.81-.71-2.85-1.99-2.85-3.69,0-2.56,2.29-4.55,5.23-4.55,1.37,0,2.53.42,3.33,1.19,1.33,0,2.58-.15,3.89-.3v1.87ZM114.39,47.19c2.53,0,4.9-1.66,4.9-3.54,0-1.1-.92-1.66-1.99-1.75-.77-.09-4.51-.12-5.38-.24-.83.98-1.93,1.4-1.93,2.55,0,1.4,1.96,2.97,4.4,2.97ZM113.55,29.57c-1.13,0-2.88.62-2.88,3.39,0,1.75.89,4.1,3.15,4.1,1.72,0,2.85-1.43,2.85-3.48,0-2.55-1.31-4.01-3.12-4.01Z"/><path class="cls-7" d="M128.15,29c3.63,0,6.39,2.7,6.39,6.24s-2.76,6.21-6.3,6.21-6.51-2.67-6.51-6.15c0-4.1,3.33-6.3,6.42-6.3ZM128.57,40.74c1.75,0,3.74-1.78,3.74-4.75,0-3.39-2.08-6.27-4.57-6.27-1.96,0-3.77,2.02-3.77,4.58,0,3.6,2.05,6.45,4.61,6.45Z"/><path class="cls-7" d="M148.33,41.36l-3.54-8.38-3.57,8.38h-.83l-4.43-9.99c-.41-.92-.83-1.37-2.2-1.51v-.54h5.76v.54c-1.75.09-1.87.59-1.25,1.99l3.21,7.16,2.91-6.89c-.65-1.51-1.16-2.05-2.2-2.17l-.71-.09v-.54h6.15v.54c-1.46.03-1.9.47-1.28,1.96l2.91,7.07,2.85-6.95c.65-1.58.15-2.08-1.72-2.08v-.54h4.99v.54c-1.13.12-1.84.68-2.44,2.14l-3.83,9.36h-.8Z"/><rect class="cls-1" x="15.32" y="11.16" width=".99" height="27.38"/><path class="cls-8" d="M21.89,20.59h4.88c1.44,0,1.57.2,1.67.51-.06-.48-.37-2.94-.59-4.72-.06-.46-.22-1.74-.86-2.5-.2-.24-.3-.37-.74-.55.03-.1.43-1.09.73-1.89.15-.41-.01-.82-.32-1.01-.27-.16-.62-.17-.87-.17-1.67,0-2.96,0-3.48,0-.89,0-1.31.57-1.04,1.25.21.52.55,1.41.71,1.81-1.1.37-1.46,1.87-1.62,3.17-.27,2.19-.62,5.11-.65,5.29-.04.28-.09.51.37.53.87.06,1.88.06,3.58.02.16.09.38.15.66.14.28,0,.48-.08.62-.18.7-.02,1.49-.06,2.39-.09-.79-.02-1.54-.04-2.23-.06.25-.31.22-.73.2-.81-.1,1.14-1.59,1.03-1.22-.18-.16,0-.57,0-.84.21-.07.18-.05.47.12.72-.96-.04-1.76-.08-2.33-.11-.29-.01-.44-.23-.29-.42.62-.81.66-.96,1.13-.96M22.33,11c.88,0,2.31,0,3.23,0,.29,0,.76-.09.49.55-.23.56-.57,1.34-.72,1.68-.49,0-2.47,0-2.47,0-.16-.37-.38-.89-.67-1.55-.15-.35-.23-.67.13-.67Z"/><path class="cls-3" d="M15.58,38.42c0,.32-.21.58-.48.58s-.48-.26-.48-.58v-2.72c0-.32.22-.58.48-.58s.48.26.48.58v2.72"/><path class="cls-10" d="M8.88,6.16c.15-.06.37-.05.58-.05-.22-.19-.43-.26-.55-.29-.29-1.09-1.86-.79-2.02.17-.06.35-1.29.5-2.71,2.39-.65.87-1.55,1.62-1.83,1.8-.27.17.39.12.7-.21.29.29.86-.59,1.72-.73.23-.04,3.08-.55,2.32-2.18,1,1.29-.67,2.22-1.72,2.32.09.05.64.09.7.12.16.06-.05.25.08.32.31.17.92.74.92.74,0,0,.35-.12.19-.27-.47-.31-.6-.4-.72-.6,0-.01-.16-.3.15-.38.45-.04,1.91-.55,1.66-2.39-.04-.29.16-.6.52-.76"/><path class="cls-7" d="M8.67,5.86c0,.1-.07.17-.16.17s-.16-.08-.16-.17.07-.17.16-.17.16.08.16.17"/><rect class="cls-3" x="16.02" y="35.02" width=".53" height="3.85"/><path class="cls-8" d="M17.02,39.47c.16-.16.25-.39.25-.63,0-.5-.41-.91-.91-.91h-1.56c-.51,0-.92.41-.92.91,0,.24.09.45.24.61-.19.17-.52.49-.62.6,1.05.46,3.03.42,4.15,0-.1-.09-.46-.42-.63-.58"/><path class="cls-1" d="M15.55,7.9s0,.02,0,0c-.68-.6-2.85-.86-4.24-.51.09.17.2.71.26.93,2.06-.69,3.98.32,3.98.32,0,0,0-.01,0-.02,0,0,0,.02,0,.02,0,0,1.92-1,3.98-.31.06-.22.17-.76.26-.92-1.4-.36-3.57-.1-4.24.5"/><rect class="cls-3" x="16.18" y="11.16" width=".31" height="21.21"/><rect class="cls-3" x="14.63" y="11.16" width=".98" height="19.68"/><path class="cls-7" d="M16.55,18.74c.06-.23.09-.8,0-.98-.46,0-1.18,0-1.6,0,.96.35,1.6.98,1.6.98"/><path class="cls-7" d="M13.11,36.26c.55.08,3.5.22,3.5.22l.48,1.25s-2.58-.07-3.98-1.47"/><path class="cls-1" d="M25.19,27.28c-.92-.6-2.04-.14-3.26-1.16,0,3.16,2.31,3.79,1.01,4.64-1.15.75-2.27.94-3.43.85.1-.16.27-.45.41-.59-1.42-.18-2.66-.08-3.18-.02-1.77-.52-3.74-1.18-6.1-1.21.43.35.85.96.85,2-.36-1.41-1.83-2.15-2.55-2.43-.22-.08-.42-.12-.63-.15-.11.14-.33.39-.72.53-.22-.12-.4.09-.37.16.01.03,0,.07-.02.1-.21.27-.9.14-1.42-.04-.59-.21-.57.2-.46.41.19.33.37.54.45.73.79,1.61,1.38,2.67,3.13,3.67,1.66,1.23,3.76,1.86,5.88,1.93.78.28,2.56.77,4.8.41-.43-.29-.87-.58-1.01-.87,2.84-.82,5.3-2.69,6.3-5.51.01-.03.02-.06.03-.09.18-.62-.42-1.44-1.27-.63.74-1.77,1.95-1,1.69.04.97-1.31,2.27-2.71,4-3.25-1.58-.73-3.14-.1-4.16.47"/><path class="cls-7" d="M16.59,24.53c.07-.23.09-.8,0-.98-.46,0-1.18,0-1.59,0,.95.35,1.59.98,1.59.98"/><path class="cls-8" d="M17.26,22.67c0,.51-.42.92-.93.92h-1.58c-.51,0-.93-.41-.93-.92s.42-.91.93-.91h1.58c.51,0,.93.41.93.91"/><path class="cls-10" d="M16.3,23.27c-.93,0-1.72,0-1.72,0,0,0,1.3-.08,2.13-.96.22.14.26.96-.41.96"/><path class="cls-7" d="M16.6,30.4c.06-.23.09-.8,0-.98-.46,0-1.18,0-1.59,0,.96.35,1.59.99,1.59.99"/><path class="cls-8" d="M17.27,28.51c0,.51-.42.92-.93.92h-1.58c-.51,0-.93-.41-.93-.92s.41-.91.93-.91h1.58c.51,0,.93.4.93.91"/><path class="cls-10" d="M16.31,29.12c-.93,0-1.72,0-1.72,0,0,0,1.3-.07,2.13-.96.22.15.26.96-.41.96"/><rect class="cls-8" x="14.16" y="12.65" width="2.79" height="2.74"/><path class="cls-10" d="M16.94,15.38c-.47.11-.44.51-.46.66,0,0-1.12,0-1.86,0,0-.04.02-.59-.47-.66,0,0,2.61,0,2.79,0Z"/><rect class="cls-10" x="15.78" y="12.65" width=".76" height="2.77"/><path class="cls-8" d="M6.8,27.82c-.29.13-.54.4-.67.74-.13.34-.13.71,0,1,.09.21.26.37.46.45.2.08.43.06.64-.03.29-.13.54-.4.67-.74.24-.62.03-1.27-.45-1.46-.2-.08-.43-.07-.65.03M6.71,29.68c-.14-.05-.22-.17-.25-.26-.09-.2-.09-.47.01-.72.1-.25.27-.45.48-.54.09-.04.22-.07.36-.02.21.08.32.31.32.59,0,.13-.02.26-.08.39-.1.25-.27.45-.48.54-.09.04-.22.07-.37.02Z"/><path class="cls-1" d="M7.21,29.58c-.16-.05-.54-.16-1.01-.18-.33-.01-.65-.2-.63-.3.02-.07.1-.11.24-.13.32-.04,1.01,0,1.76.11-.06.18-.16.35-.36.49"/><path class="cls-6" d="M8.39,7.34c-.01,1.39-1.08,1.83-1.38,1.91.1-.31.54-1.75,1.38-1.91"/><path class="cls-8" d="M17.28,16.85c0,.51-.41.92-.93.92h-1.58c-.51,0-.93-.41-.93-.92s.41-.91.93-.91h1.58c.52,0,.93.41.93.91"/><path class="cls-10" d="M16.33,17.46c-.93.01-1.72,0-1.72,0,0,0,1.3-.08,2.13-.96.22.15.26.96-.41.96"/><path class="cls-3" d="M10.15,30.13c1.01.67,1.34,1.66,1.34,1.66,0,0,.33-.83-.12-1.47.91-.27,2.5.15,3.94.71,2.1.82,3.68,1.1,5.28.82,1.6-.27,2.44-.61,2.96-1.4.27-.43,1.08-.34.86.3-.23.64-1.22,2.47-3.1,2.98-1.88.5-4.97,1.34-9.55.2-1.23-.31-4.1-1.07-5.28-2.58-.24-.3-.3-.87-.31-.96-.01-.11.06-.17.32-.12.81.14.96-.17,1.26-.51.33-.04,1.49-.25,2.41.36"/><path class="cls-9" d="M24.06,30.63c-1.4,2.66-4.11,3.07-6.94,3.16-1.15.03-2.3-.11-3.28-.36.83.08,1.69.02,2.22-.16-.21-1.07-2.03-1.84-3.3-1.91-.24-.27-.31-.63-.89-.84.41.38.38.91.58,1.18,1.04.21,2.31.48,2.92,1.29-.22.28-2.1.12-3.12-.11-.44-.16-.9-.43-1.15-.91-.49.55-1.27.35-2.07-.05-.01-.31-.2-.58-.62-.66.09.14.11.28.11.39-.9-.52-1.76-1.16-2.2-1.12-.61.05,1.34,3.47,2.99,3.84,4.9,2.82,13.08,1.58,15.02-3.18.27-.69.03-1.13-.28-.55Z"/><path class="cls-3" d="M8.6,31.6c.03.3-.21.57-.52.6-.32.04-.6-.18-.63-.48-.03-.3.2-.57.52-.6.32-.03.6.19.63.49"/><path class="cls-7" d="M8.32,31.66c0,.15-.14.26-.3.26s-.3-.12-.3-.26.14-.27.3-.27.3.12.3.27"/><path class="cls-3" d="M22.35,26.78c-.34,1.16,1.1,2.72,1.1,2.72,0,0-.65-2.03-1.1-2.72"/><path class="cls-3" d="M23.36,27.03c-.49.68.43,2.22.43,2.22,0,0-.05-1.24-.43-2.22"/><path class="cls-3" d="M24.91,28.79c.39-.85,1.17-1.69,2-1.99-1.72.21-2.11,1.35-2,1.99"/><path class="cls-3" d="M15.55,3.1c-.73-1.4-1.76-.32-3.58-.88-.32,1.49-.64,4.14-.73,4.6,1.24.37,2.33-.79,3.81.18-.16-1.92.46-3.51.46-3.51,0,0,.02-.23.04-.38"/><path class="cls-1" d="M15.55,3.09c-.14-.25-.28-.46-.52-.6-.21,2.28-.27,2.78-.99,4.12.45.06.78.22,1.01.39-.16-1.92.5-3.43.5-3.43,0,0,0-.4,0-.48Z"/><path class="cls-3" d="M19.13,2.21c-1.82.56-2.85-.52-3.58.89,0,.48,0,4.02,0,4.29,1.74-1.63,2.94-.16,4.31-.57-.09-.46-.41-3.11-.73-4.6"/><rect class="cls-8" x="15.05" y="9.99" width="1.01" height="1.17"/><polygon class="cls-8" points="15.56 8.86 16.06 9.74 15.04 9.75 15.56 8.86"/><path class="cls-5" d="M7.06,12.33h0s0,0,0,0"/><path class="cls-4" d="M11.13,18.08s1.39-.68,1.52-1.39c-.43-.41-1.51-.46-1.51-.46,0,0,1.24-.95,1.19-1.63-.62-.29-1.73-.12-1.73-.12.51-.71.66-1.27.64-1.77-.65-.11-1.64.28-1.64.28,0,0,.33-1.19,0-1.81-.6-.16-1.44.89-1.44.89,0,0-.3-1.3-1-2-.7.69-1.01,2-1.01,2,0,0-.84-1.05-1.44-.89-.32.62,0,1.81,0,1.81,0,0-1-.38-1.65-.28-.02.5.13,1.06.64,1.77,0,0-1.11-.17-1.73.12-.05.69,1.19,1.63,1.19,1.63,0,0-1.08.05-1.51.46.14.7,1.52,1.39,1.52,1.39,0,0-.83.17-1.33.74.32.43,1.04.83,1.61.93-.49.39-.76.7-.88.93.79.64,2.46.73,4.12.21,0,.32,0,2.88-.38,4.06h1.68c-.39-1.18-.38-3.74-.38-4.06,1.66.52,3.33.43,4.12-.21-.12-.23-.4-.54-.88-.93.56-.09,1.28-.5,1.61-.93-.5-.57-1.33-.74-1.33-.74"/><path class="cls-2" d="M9.61,18.13c.16-.09.96-.33,1.37-1.05-.41-.4-1.37-.41-1.37-.41,0,0,.85-.56,1.14-1.41-.73-.21-1.5,0-1.5,0,0,0,.62-.89.7-1.63-.7.08-1.45.45-1.45.45.21-.46.32-1.11.23-1.68-.35.07-.67.47-.86.72-.18-.57-.48-.75-.69-.86-.34.5-.41.83-.37,1.52.12-.11.3-.3.6-.47.18.98-.17,1.7-.17,1.7,0,0,.43-.28,1.01-.35.02.54-.17,1.1-.75,1.77,0,0,.5-.3,1.08-.35-.09.76-.56,1.27-1.04,1.71.32-.15.87-.14,1.25-.01-.2.58-.65.87-1.31,1.23.41,0,.83.05,1.07.21-.27.5-.91.73-1.36.86,1.04.4,2.04.56,3.03.32-.07-.29-.44-.65-.88-.9.4-.09.99-.21,1.51-.66-.34-.34-.75-.56-1.25-.7"/><path class="cls-1" d="M4.05,40.51c.24.79-.39,2.31.05,3.18-.38-.01-2.8.43-3.16.12-.35-.31-1.3-.98-.35-1.5.94-.51,3.33-1.43,3.46-1.8"/><path class="cls-1" d="M27.17,40.43c.28,2.52-.15,2.8-.12,3.52.24.06,2.16.46,2.84.1.68-.37,1.15-1.26.84-1.62-.31-.37-1.88-1.36-2.51-1.47-.63-.11-.88-.34-1.05-.53"/><path class="cls-7" d="M30.18,41.64c-1.05-.56-2.6-.9-3.48-2.1-.33,1.21.47,1.9.44,3.68.74-1.38.13-1.72.26-2.38.6.76,1.49.87,2.11,1.19.8.42,1.28,1.34-.36,1.33-3.22,0-23.86,0-27.15,0-1.7,0-1.2-.91-.41-1.33.62-.33,1.53-.43,2.12-1.21.12.65-.49.99.25,2.37-.03-1.78.76-2.44.44-3.66-.88,1.2-2.46,1.54-3.5,2.1C0,42.11,0,42.43,0,43.96c0,1.02,0,2.31,0,3.18,0,.61.7.97,1.54.94h27.99c.84.02,1.56-.33,1.56-.93,0-.87,0-2.17,0-3.2.01-1.57-.02-1.83-.91-2.31"/><path class="cls-3" d="M1.56,44.69h.6l.42,1.16s.03.12.07.28c.04-.16.06-.25.07-.28l.41-1.16h.6l-.87,2.07h-.43l-.87-2.07"/><rect class="cls-3" x="4.05" y="44.69" width=".57" height="2.07"/><path class="cls-3" d="M5.7,44.69h.71l.72,2.07h-.56l-.1-.37h-.8l-.11.37h-.56l.71-2.07M6.33,45.99l-.21-.68s-.03-.13-.07-.28c-.04.15-.06.25-.07.28l-.21.68h.56Z"/><path class="cls-3" d="M8.24,44.69h.6l.41,1.16s.03.12.07.28c.04-.16.06-.25.07-.28l.41-1.16h.6l-.87,2.07h-.43l-.87-2.07"/><polyline class="cls-3" points="10.72 44.69 11.99 44.69 11.99 45.15 11.27 45.15 11.27 45.51 11.95 45.51 11.95 45.95 11.27 45.95 11.27 46.3 11.99 46.3 11.99 46.76 10.72 46.76 10.72 44.69"/><path class="cls-3" d="M12.5,44.69h.63c.29,0,.51,0,.69.14.15.12.23.29.23.51,0,.32-.16.52-.46.59l.56.83h-.64l-.48-.81v.81h-.53v-2.07M13.14,45.67c.24,0,.35-.07.35-.26,0-.22-.11-.29-.34-.29h-.11v.54h.11Z"/><rect class="cls-3" x="14.52" y="44.69" width=".57" height="2.07"/><polyline class="cls-3" points="15.99 45.18 15.53 45.18 15.53 44.69 17.02 44.69 17.02 45.18 16.55 45.18 16.55 46.76 15.99 46.76 15.99 45.18"/><path class="cls-3" d="M17.91,44.69h.7l.72,2.07h-.56l-.11-.37h-.8l-.11.37h-.56l.72-2.07M18.55,45.99l-.21-.68s-.03-.13-.07-.28c-.04.15-.06.25-.07.28l-.21.68h.56Z"/><path class="cls-3" d="M20.26,46.38c.15,0,.26-.09.26-.21,0-.17-.11-.21-.35-.28-.37-.1-.55-.25-.55-.57,0-.39.28-.67.72-.67.23,0,.43.06.61.18l-.18.4c-.13-.11-.27-.16-.4-.16-.14,0-.23.08-.23.17,0,.15.14.18.33.23.37.1.57.23.57.62,0,.43-.31.73-.79.73-.29,0-.51-.09-.74-.3l.25-.42c.17.19.33.28.49.28"/><path class="cls-3" d="M22.28,44.69h.6l.42,1.16s.03.12.07.28c.04-.16.06-.25.07-.28l.41-1.16h.6l-.87,2.07h-.43l-.87-2.07"/><rect class="cls-3" x="24.77" y="44.69" width=".57" height="2.07"/><polyline class="cls-3" points="26.24 45.18 25.78 45.18 25.78 44.69 27.27 44.69 27.27 45.18 26.81 45.18 26.81 46.76 26.24 46.76 26.24 45.18"/><path class="cls-3" d="M28.16,44.69h.71l.72,2.07h-.56l-.1-.37h-.8l-.11.37h-.56l.72-2.07M28.8,45.99l-.21-.68s-.03-.13-.07-.28c-.04.15-.06.25-.07.28l-.21.68h.56Z"/><path class="cls-10" d="M16.68,38.33c.14.16.23.93-.43.99-1.15.09-1.7-.02-1.7-.02,0,0,1.54-.18,2.13-.96"/><path class="cls-10" d="M21.84,14.81c.07-.94.51-1.16,1.12-1.15.34,0,.86.01,2.11,0-.7.06-1.58.43-1.7,1.35-.11.85-.11,3.8-.13,5.06-.62.02-1.45,0-1.63.05.09-1.31.16-4.38.23-5.31"/><rect class="cls-10" x="15.56" y="9.99" width=".31" height="1.17"/><polygon class="cls-10" points="15.87 9.75 15.56 8.86 15.56 9.74 15.87 9.75"/></g></svg>